PathFileType	4	(x/y/z)	S01_M20_T03.trc
DataRate	CameraRate	NumFrames	NumMarkers	Units	OrigDataRate	OrigDataStartFrame	OrigNumFrames
240	240	7	51	mm	240	306	488
Frame#	Time	Sternum			R.Acromium			L.Acromium			Top.Head			R.ASIS			L.ASIS			R.PSIS			L.PSIS			R.Great.Tro			L.Great.Tro			R.Iliac.Crest			L.Iliac.Crest			V.Sacral			R.Thigh.Upper.Post			R.Thigh.Lower.Ant			R.Thigh.Lower.Post			R.Thigh.Upper.Ant			R.Knee.Lat			R.Knee.Med			R.Shank.Upper.Post			R.Shank.Lower.Ant			R.Shank.Lower.Post			R.Shank.Upper.Ant			R.Ankle.Lat			R.Ankle.Med			R.Heel.Upper			R.Heel.Med			R.Heel.Lat			R.Toe.Lat			R.Toe.Med			R.Toe.Tip			L.Thigh.Upper.Post			L.Thigh.Lower.Ant			L.Thigh.Lower.Post			L.Thigh.Upper.Ant			L.Knee.Lat			L.Knee.Med			L.Shank.Upper.Post			L.Shank.Lower.Ant			L.Shank.Lower.Post			L.Shank.Upper.Ant			L.Ankle.Lat			L.Ankle.Med			L.Heel.Upper			L.Heel.Med			L.Heel.Lat			L.Toe.Lat			L.Toe.Med			L.Toe.Tip			Cervical.Spine			Back			
		X1	Y1	Z1	X2	Y2	Z2	X3	Y3	Z3	X4	Y4	Z4	X5	Y5	Z5	X6	Y6	Z6	X7	Y7	Z7	X8	Y8	Z8	X9	Y9	Z9	X10	Y10	Z10	X11	Y11	Z11	X12	Y12	Z12	X13	Y13	Z13	X14	Y14	Z14	X15	Y15	Z15	X16	Y16	Z16	X17	Y17	Z17	X18	Y18	Z18	X19	Y19	Z19	X20	Y20	Z20	X21	Y21	Z21	X22	Y22	Z22	X23	Y23	Z23	X24	Y24	Z24	X25	Y25	Z25	X26	Y26	Z26	X27	Y27	Z27	X28	Y28	Z28	X29	Y29	Z29	X30	Y30	Z30	X31	Y31	Z31	X32	Y32	Z32	X33	Y33	Z33	X34	Y34	Z34	X35	Y35	Z35	X36	Y36	Z36	X37	Y37	Z37	X38	Y38	Z38	X39	Y39	Z39	X40	Y40	Z40	X41	Y41	Z41	X42	Y42	Z42	X43	Y43	Z43	X44	Y44	Z44	X45	Y45	Z45	X46	Y46	Z46	X47	Y47	Z47	X48	Y48	Z48	X49	Y49	Z49	X50	Y50	Z50	X51	Y51	Z51	

306	1.2708	232.34	1239.1	310.85	110.98	1482.2	487.24	95.518	1499.5	155.54	58.453	1809.3	320.97	179.95	979.04	471.02	205	985.82	203.3	-49.43	1028.7	346.62	-38.85	1020	243.84	81.634	934.58	538.53	117.43	935.97	110.83	86.596	1077.1	525.77	98.875	1065.3	115.34	-57.073	987.08	292.92	-26.511	655.12	511.12	19.376	564.55	494.16	-49.32	570.2	494.85	46.422	650.26	511.5	-60.812	501.32	491.62	-32.061	493.15	349.78	-201.61	403.95	500.57	-196.32	298.64	467.76	-244.68	348.73	488.07	-156.1	358.19	485.44	-358.82	169.35	450.88	-318.4	163.75	361.82	-428.04	178.12	386.9	-425.75	149.06	353.97	-436.39	143.54	417.92	-286.6	38.903	482.03	-247.6	44.506	359.82	-184.15	43.297	416.18	202.19	661.1	142.18	306.96	631.34	149.63	246.02	583.88	166.23	253.42	706.45	124.87	331.62	531.52	161.92	336.15	542.95	302.84	324.53	387.55	140.08	405.61	317.2	169.77	346.25	312.6	143.85	385.62	391.25	162.55	388.85	103.13	174.91	407.55	118.11	274.31	322	64.783	220.38	336.07	42.524	255.31	336.24	40.052	192.31	542.49	62.689	165.41	563.38	79.608	286.41	624.63	101.45	235.96	7.1758	1545.3	327.48	-66.743	1233.9	333.34
307	1.275	238.77	1239.9	309.78	116.97	1483	486.01	101.49	1499.9	154.29	64.054	1809.9	319.55	186.36	979.46	470.05	211.44	986.64	202.48	-42.848	1029	346.06	-32.462	1020.7	243.23	88.346	934.54	537.7	123.87	936.87	110.12	93.651	1077.8	524.92	105.47	1066	114.58	-50.57	987.56	292.27	-18.943	654.78	511.09	27.392	564.34	494.79	-41.317	569.69	495.23	54.016	650.28	511.65	-52.567	500.83	492.35	-23.215	492.05	350.69	-194.42	405.24	501.02	-190.5	299.83	468.56	-238.2	350.64	488.64	-149.51	358.83	486.21	-354.58	172.73	451.58	-314.03	166.42	362.7	-423.12	183.42	387.56	-421.56	154.53	354.36	-432.52	148.88	418.26	-285.92	39.858	482.04	-246.88	45.197	359.98	-183.64	42.907	416.25	208.67	661.8	141.39	313.35	631.97	149.25	252.34	584.53	165.54	259.93	707.16	124.39	337.81	531.96	161.72	342.07	543.6	302.49	329.57	388.02	139.67	409.8	316.86	169.73	350.5	312.87	143.53	390.55	391.1	162.49	390.37	103	174.77	409.23	117.8	274.18	322.97	65.57	220.2	336.57	43.128	255.16	336.83	40.537	192.22	543.55	60.418	165.42	564.61	77.04	286.42	626.28	97.903	236.03	13.053	1545.7	326.18	-60.317	1234.2	332.38
308	1.2792	245.16	1240.8	308.7	122.97	1483.8	484.78	107.44	1500.4	153.06	69.629	1810.5	318.13	192.76	979.92	469.04	217.84	987.53	201.63	-36.304	1029.4	345.55	-26.135	1021.4	242.68	95.065	934.53	536.86	130.21	937.82	109.42	100.73	1078.6	524.06	111.96	1066.9	113.86	-44.119	988.09	291.68	-11.234	654.39	511.09	35.599	564.13	495.45	-33.124	569.13	495.66	61.751	650.29	511.82	-44.079	500.3	493.11	-14.155	490.9	351.63	-186.95	406.49	501.53	-184.42	301.02	469.37	-231.45	352.55	489.25	-142.65	359.44	487	-350.09	176.21	452.27	-309.45	169.16	363.56	-417.9	188.86	388.2	-417.08	160.17	354.74	-428.36	154.41	418.59	-285.16	40.966	482.03	-246.03	46.011	360.14	-183.08	42.486	416.33	215.04	662.49	140.61	319.65	632.6	148.84	258.56	585.18	164.84	266.33	707.86	123.91	343.86	532.37	161.49	347.99	544.24	302.11	334.47	388.48	139.26	413.86	316.53	169.67	354.63	313.13	143.2	395.36	390.96	162.4	391.79	102.89	174.64	410.8	117.54	274.05	323.89	66.319	220.02	337.04	43.708	255.02	337.38	41.008	192.12	544.54	58.307	165.43	565.74	74.625	286.43	627.78	94.551	236.12	18.922	1546.2	324.9	-53.902	1234.6	331.44
309	1.2833	251.53	1241.7	307.6	128.97	1484.8	483.55	113.36	1501	151.83	75.177	1811.1	316.72	199.13	980.43	468	224.18	988.49	200.74	-29.802	1029.8	345.09	-19.868	1022.1	242.18	101.78	934.54	536.01	136.45	938.8	108.73	107.81	1079.5	523.2	118.34	1067.8	113.18	-37.72	988.67	291.14	-3.389	653.95	511.13	43.991	563.9	496.13	-24.746	568.51	496.13	69.622	650.29	512	-35.354	499.71	493.9	-4.8865	489.72	352.59	-179.2	407.72	502.07	-178.09	302.21	470.17	-224.43	354.46	489.89	-135.54	360.03	487.81	-345.35	179.79	452.93	-304.66	171.97	364.39	-412.37	194.43	388.83	-412.31	165.96	355.11	-423.91	160.13	418.91	-284.3	42.24	482	-245.04	46.958	360.29	-182.48	42.037	416.45	221.27	663.17	139.85	325.81	633.2	148.42	264.64	585.82	164.15	272.61	708.55	123.43	349.76	532.75	161.25	353.85	544.86	301.71	339.23	388.92	138.84	417.79	316.2	169.59	358.62	313.39	142.88	400.02	390.8	162.29	393.12	102.81	174.52	412.28	117.31	273.93	324.75	67.023	219.85	337.49	44.258	254.88	337.91	41.461	192.03	545.44	56.353	165.44	566.76	72.356	286.46	629.15	91.395	236.22	24.782	1546.8	323.63	-47.501	1235.1	330.54
310	1.2875	257.86	1242.7	306.49	134.98	1485.8	482.31	119.27	1501.7	150.62	80.697	1811.8	315.32	205.48	980.98	466.93	230.47	989.51	199.82	-23.349	1030.3	344.68	-13.661	1022.9	241.73	108.48	934.58	535.14	142.6	939.81	108.04	114.89	1080.4	522.33	124.59	1068.7	112.54	-31.376	989.28	290.66	4.587	653.47	511.19	52.56	563.65	496.83	-16.189	567.84	496.62	77.622	650.3	512.21	-26.396	499.07	494.71	4.5827	488.52	353.58	-171.17	408.91	502.66	-171.51	303.39	470.96	-217.15	356.36	490.55	-128.17	360.58	488.62	-340.34	183.48	453.56	-299.63	174.86	365.18	-406.52	200.14	389.44	-407.23	171.9	355.48	-419.15	166.03	419.23	-283.34	43.694	481.94	-243.9	48.043	360.45	-181.82	41.562	416.59	227.35	663.83	139.11	331.84	633.75	147.98	270.56	586.43	163.47	278.75	709.21	122.95	355.49	533.09	160.99	359.63	545.45	301.3	343.84	389.33	138.44	421.58	315.86	169.51	362.47	313.63	142.56	404.53	390.63	162.17	394.36	102.74	174.42	413.66	117.1	273.83	325.56	67.681	219.7	337.92	44.773	254.75	338.41	41.893	191.94	546.28	54.556	165.46	567.69	70.228	286.51	630.4	88.432	236.34	30.631	1547.4	322.38	-41.119	1235.6	329.66
311	1.2917	264.16	1243.7	305.37	140.99	1486.8	481.07	125.16	1502.4	149.43	86.191	1812.5	313.94	211.79	981.58	465.83	236.71	990.6	198.87	-16.95	1030.8	344.31	-7.5114	1023.7	241.33	115.16	934.64	534.26	148.67	940.84	107.37	121.95	1081.4	521.44	130.74	1069.7	111.94	-25.086	989.93	290.23	12.688	652.95	511.28	61.298	563.4	497.55	-7.4609	567.12	497.13	85.745	650.3	512.43	-17.212	498.4	495.54	14.244	487.3	354.57	-162.87	410.07	503.28	-164.67	304.58	471.74	-209.59	358.25	491.24	-120.55	361.11	489.43	-335.07	187.26	454.16	-294.39	177.83	365.94	-400.36	205.95	390.03	-401.84	177.97	355.83	-414.08	172.09	419.53	-282.25	45.342	481.86	-242.59	49.272	360.6	-181.09	41.067	416.77	233.28	664.47	138.41	337.71	634.24	147.53	276.32	587.03	162.81	284.74	709.83	122.47	361.04	533.38	160.72	365.28	545.98	300.9	348.29	389.71	138.05	425.21	315.51	169.42	366.17	313.85	142.25	408.89	390.43	162.05	395.5	102.69	174.34	414.93	116.91	273.74	326.31	68.29	219.57	338.33	45.25	254.64	338.87	42.302	191.86	547.04	52.912	165.48	568.52	68.236	286.57	631.52	85.659	236.47	36.467	1548	321.15	-34.759	1236.2	328.82
312	1.2958	270.43	1244.7	304.24	147	1487.9	479.83	131.02	1503.2	148.25	91.657	1813.3	312.57	218.06	982.21	464.72	242.88	991.73	197.91	-10.61	1031.3	343.96	-1.4177	1024.5	240.95	121.81	934.73	533.38	154.67	941.88	106.7	128.98	1082.4	520.55	136.78	1070.6	111.36	-18.851	990.61	289.83	20.908	652.39	511.4	70.197	563.15	498.28	1.4302	566.36	497.67	93.983	650.3	512.66	-7.8118	497.69	496.37	24.087	486.07	355.56	-154.3	411.2	503.93	-157.57	305.76	472.48	-201.77	360.13	491.94	-112.67	361.62	490.23	-329.53	191.14	454.72	-288.91	180.86	366.65	-393.87	211.88	390.58	-396.14	184.17	356.16	-408.68	178.31	419.81	-281.03	47.195	481.76	-241.09	50.647	360.76	-180.3	40.558	416.98	239.04	665.09	137.74	343.42	634.67	147.09	281.89	587.58	162.19	290.59	710.39	122	366.39	533.61	160.45	370.77	546.45	300.5	352.57	390.06	137.69	428.7	315.15	169.34	369.72	314.04	141.97	413.07	390.22	161.92	396.56	102.65	174.29	416.11	116.73	273.69	327.01	68.849	219.45	338.71	45.686	254.54	339.3	42.687	191.79	547.75	51.421	165.51	569.28	66.373	286.65	632.53	83.072	236.63	42.291	1548.7	319.93	-28.425	1236.8	328.01
